<svg xmlns="http://www.w3.org/2000/svg" xmlns:xlink="http://www.w3.org/1999/xlink" xmlns:lucid="lucid" width="1100" height="460"><g transform="translate(-300 -160)" lucid:page-tab-id="ago9wdiMz1b2"><path d="M620 220c0 22.1-17.9 40-40 40s-40-17.9-40-40 17.9-40 40-40 40 17.9 40 40z" stroke="#5e5e5e" stroke-width="3" fill="#fff"/><use xlink:href="#a" transform="matrix(1,0,0,1,545,185) translate(28.82716049382716 39.65277777777778)"/><path d="M579.1 261.93l-102.4 48.63" stroke="#5e5e5e" stroke-width="2" fill="none"/><path d="M579.5 262.84l-.67-1.4 1.15.06 2.54-.1z" fill="#5e5e5e"/><path d="M462.92 317.1l10.9-10.3 3.98 8.38z" stroke="#5e5e5e" stroke-width="2" fill="#5e5e5e"/><path d="M500 360c0 22.1-17.9 40-40 40s-40-17.9-40-40 17.9-40 40-40 40 17.9 40 40z" stroke="#5e5e5e" stroke-width="3" fill="#fff"/><use xlink:href="#b" transform="matrix(1,0,0,1,425,325) translate(28.82716049382716 39.65277777777778)"/><path d="M580.93 261.88l121.93 49.64" stroke="#5e5e5e" stroke-width="2" fill="none"/><path d="M579.98 261.5l1.14-.04-.55 1.35-3.7-1.5z" fill="#5e5e5e"/><path d="M717 317.28l-14.96-1.1 3.5-8.57z" stroke="#5e5e5e" stroke-width="2" fill="#5e5e5e"/><path d="M760 360c0 22.1-17.9 40-40 40s-40-17.9-40-40 17.9-40 40-40 40 17.9 40 40z" stroke="#5e5e5e" stroke-width="3" fill="#fff"/><use xlink:href="#b" transform="matrix(1,0,0,1,685,325) translate(28.82716049382716 39.65277777777778)"/><path d="M459.35 402.26l-87.33 102.17" stroke="#5e5e5e" stroke-width="2" fill="none"/><path d="M459.98 401.5l1.38-.05-1.27 1.48-1.53-1.3.18-.2z" fill="#5e5e5e"/><path d="M362.1 516.04l5.75-13.86 7.05 6.03z" stroke="#5e5e5e" stroke-width="2" fill="#5e5e5e"/><path d="M400 560c0 22.1-17.9 40-40 40s-40-17.9-40-40 17.9-40 40-40 40 17.9 40 40z" stroke="#5e5e5e" stroke-width="3" fill="#fff"/><use xlink:href="#c" transform="matrix(1,0,0,1,325,525) translate(28.82716049382716 39.65277777777778)"/><path d="M719.44 402.33l-69 100.9" stroke="#5e5e5e" stroke-width="2" fill="none"/><path d="M719.98 401.5l1.26-.04-1 1.45-1.64-1.12.24-.35z" fill="#5e5e5e"/><path d="M641.83 515.83l4.22-14.4 7.66 5.24z" stroke="#5e5e5e" stroke-width="2" fill="#5e5e5e"/><path d="M680 560c0 22.1-17.9 40-40 40s-40-17.9-40-40 17.9-40 40-40 40 17.9 40 40z" stroke="#5e5e5e" stroke-width="3" fill="#fff"/><use xlink:href="#c" transform="matrix(1,0,0,1,605,525) translate(28.82716049382716 39.65277777777778)"/><path d="M1100 220c0 22.1-17.9 40-40 40s-40-17.9-40-40 17.9-40 40-40 40 17.9 40 40z" stroke="#5e5e5e" stroke-width="3" fill="#fff"/><use xlink:href="#a" transform="matrix(1,0,0,1,1025,185) translate(28.82716049382716 39.65277777777778)"/><path d="M1059.1 261.93l-102.4 48.63" stroke="#5e5e5e" stroke-width="2" fill="none"/><path d="M1059.5 262.84l-.67-1.4 1.15.06 2.54-.1z" fill="#5e5e5e"/><path d="M942.92 317.1l10.9-10.3 3.98 8.38z" stroke="#5e5e5e" stroke-width="2" fill="#5e5e5e"/><path d="M980 360c0 22.1-17.9 40-40 40s-40-17.9-40-40 17.9-40 40-40 40 17.9 40 40z" stroke="#5e5e5e" stroke-width="3" fill="#fff"/><use xlink:href="#b" transform="matrix(1,0,0,1,905,325) translate(28.82716049382716 39.65277777777778)"/><path d="M1060.93 261.88l121.93 49.64" stroke="#5e5e5e" stroke-width="2" fill="none"/><path d="M1059.98 261.5l1.14-.04-.55 1.35-3.7-1.5z" fill="#5e5e5e"/><path d="M1197 317.28l-14.96-1.1 3.5-8.57z" stroke="#5e5e5e" stroke-width="2" fill="#5e5e5e"/><path d="M1240 360c0 22.1-17.9 40-40 40s-40-17.9-40-40 17.9-40 40-40 40 17.9 40 40z" stroke="#5e5e5e" stroke-width="3" fill="#fff"/><use xlink:href="#b" transform="matrix(1,0,0,1,1165,325) translate(28.82716049382716 39.65277777777778)"/><path d="M940.72 402.2l106.03 103.38" stroke="#5e5e5e" stroke-width="2" fill="none"/><path d="M939.98 401.5l1.4-.05.05.05-1.4 1.43-1.56-1.52z" fill="#5e5e5e"/><path d="M1057.68 516.24l-13.45-6.64 6.47-6.64z" stroke="#5e5e5e" stroke-width="2" fill="#5e5e5e"/><path d="M1100 560c0 22.1-17.9 40-40 40s-40-17.9-40-40 17.9-40 40-40 40 17.9 40 40z" stroke="#5e5e5e" stroke-width="3" fill="#fff"/><use xlink:href="#c" transform="matrix(1,0,0,1,1025,525) translate(28.82716049382716 39.65277777777778)"/><path d="M1200.77 402.14l125.03 104.5" stroke="#5e5e5e" stroke-width="2" fill="none"/><path d="M1199.98 401.5l1.4-.05-1.23 1.48-1.83-1.53z" fill="#5e5e5e"/><path d="M1337.52 516.42l-13.92-5.6 5.94-7.1z" stroke="#5e5e5e" stroke-width="2" fill="#5e5e5e"/><path d="M1380 560c0 22.1-17.9 40-40 40s-40-17.9-40-40 17.9-40 40-40 40 17.9 40 40z" stroke="#5e5e5e" stroke-width="3" fill="#fff"/><use xlink:href="#c" transform="matrix(1,0,0,1,1305,525) translate(28.82716049382716 39.65277777777778)"/><defs><path fill="#333" d="M54-142c48-35 137-8 131 61C196 18 31 33 14-55l32-4c7 23 22 37 52 37 35-1 51-22 54-58 4-55-73-65-99-34H22l8-134h141v27H59" id="d"/><use transform="matrix(0.06172839506172839,0,0,0.06172839506172839,0,0)" xlink:href="#d" id="a"/><path fill="#333" d="M64 0c3-98 48-159 88-221H18v-27h164v26C143-157 98-101 97 0H64" id="e"/><use transform="matrix(0.06172839506172839,0,0,0.06172839506172839,0,0)" xlink:href="#e" id="b"/><path fill="#333" d="M126-127c33 6 58 20 58 59 0 88-139 92-164 29-3-8-5-16-6-25l32-3c6 27 21 44 54 44 32 0 52-15 52-46 0-38-36-46-79-43v-28c39 1 72-4 72-42 0-27-17-43-46-43-28 0-47 15-49 41l-32-3c6-42 35-63 81-64 48-1 79 21 79 65 0 36-21 52-52 59" id="f"/><use transform="matrix(0.06172839506172839,0,0,0.06172839506172839,0,0)" xlink:href="#f" id="c"/></defs></g></svg>