<svg xmlns="http://www.w3.org/2000/svg" xmlns:xlink="http://www.w3.org/1999/xlink" xmlns:lucid="lucid" width="1680" height="460"><g transform="translate(-20 -80)" lucid:page-tab-id="0_0"><path d="M380 140c0 22.1-17.9 40-40 40s-40-17.9-40-40 17.9-40 40-40 40 17.9 40 40z" stroke="#5e5e5e" stroke-width="3" fill="#fff"/><use xlink:href="#a" transform="matrix(1,0,0,1,305,105) translate(28.82716049382716 39.65277777777778)"/><path d="M339.06 181.84L197.43 232.3" stroke="#5e5e5e" stroke-width="2" fill="none"/><path d="M343.16 181.44l-3.8 1.35-.47-1.37 1.08.07 3.02-.1.14-.02z" fill="#5e5e5e"/><path d="M183.05 237.4l11.88-9.14 3.1 8.73z" stroke="#5e5e5e" stroke-width="2" fill="#5e5e5e"/><path d="M220 280c0 22.1-17.9 40-40 40s-40-17.9-40-40 17.9-40 40-40 40 17.9 40 40z" stroke="#5e5e5e" stroke-width="3" fill="#fff"/><use xlink:href="#b" transform="matrix(1,0,0,1,145,245) translate(28.82716049382716 39.65277777777778)"/><path d="M340.94 181.84l141.63 50.45" stroke="#5e5e5e" stroke-width="2" fill="none"/><path d="M339.98 181.5l1.12-.04-.47 1.33-3.8-1.36.05-.13z" fill="#5e5e5e"/><path d="M496.95 237.4l-15-.4 3.12-8.74z" stroke="#5e5e5e" stroke-width="2" fill="#5e5e5e"/><path d="M540 280c0 22.1-17.9 40-40 40s-40-17.9-40-40 17.9-40 40-40 40 17.9 40 40z" stroke="#5e5e5e" stroke-width="3" fill="#fff"/><use xlink:href="#b" transform="matrix(1,0,0,1,465,245) translate(28.82716049382716 39.65277777777778)"/><path d="M179.35 322.26L92.02 424.43" stroke="#5e5e5e" stroke-width="2" fill="none"/><path d="M179.98 321.5l1.38-.05-1.27 1.48-1.53-1.3.18-.2z" fill="#5e5e5e"/><path d="M82.1 436.04l5.75-13.86 7.05 6.03z" stroke="#5e5e5e" stroke-width="2" fill="#5e5e5e"/><path d="M120 480c0 22.1-17.9 40-40 40s-40-17.9-40-40 17.9-40 40-40 40 17.9 40 40z" stroke="#5e5e5e" stroke-width="3" fill="#fff"/><use xlink:href="#c" transform="matrix(1,0,0,1,45,445) translate(28.82716049382716 39.65277777777778)"/><path d="M180.65 322.26l87.33 102.17" stroke="#5e5e5e" stroke-width="2" fill="none"/><path d="M179.98 321.5l1.3-.04.15.17-1.52 1.3-1.3-1.5z" fill="#5e5e5e"/><path d="M277.9 436.04l-12.8-7.83 7.05-6.02z" stroke="#5e5e5e" stroke-width="2" fill="#5e5e5e"/><path d="M320 480c0 22.1-17.9 40-40 40s-40-17.9-40-40 17.9-40 40-40 40 17.9 40 40z" stroke="#5e5e5e" stroke-width="3" fill="#fff"/><use xlink:href="#d" transform="matrix(1,0,0,1,245,445) translate(22.654320987654323 39.65277777777778)"/><path d="M499.35 322.26l-87.33 102.17" stroke="#5e5e5e" stroke-width="2" fill="none"/><path d="M499.98 321.5l1.38-.05-1.27 1.48-1.53-1.3.18-.2z" fill="#5e5e5e"/><path d="M402.1 436.04l5.75-13.86 7.05 6.03z" stroke="#5e5e5e" stroke-width="2" fill="#5e5e5e"/><path d="M440 480c0 22.1-17.9 40-40 40s-40-17.9-40-40 17.9-40 40-40 40 17.9 40 40z" stroke="#5e5e5e" stroke-width="3" fill="#fff"/><use xlink:href="#d" transform="matrix(1,0,0,1,365,445) translate(22.654320987654323 39.65277777777778)"/><path d="M500.65 322.26l87.33 102.17" stroke="#5e5e5e" stroke-width="2" fill="none"/><path d="M499.98 321.5l1.3-.04.15.17-1.52 1.3-1.3-1.5z" fill="#5e5e5e"/><path d="M597.9 436.04l-12.8-7.83 7.05-6.02z" stroke="#5e5e5e" stroke-width="2" fill="#5e5e5e"/><path d="M640 480c0 22.1-17.9 40-40 40s-40-17.9-40-40 17.9-40 40-40 40 17.9 40 40z" stroke="#5e5e5e" stroke-width="3" fill="#fff"/><use xlink:href="#c" transform="matrix(1,0,0,1,565,445) translate(28.82716049382716 39.65277777777778)"/><path d="M1000 140c0 22.1-17.9 40-40 40s-40-17.9-40-40 17.9-40 40-40 40 17.9 40 40z" stroke="#5e5e5e" stroke-width="3" fill="#fff"/><use xlink:href="#a" transform="matrix(1,0,0,1,925,105) translate(28.82716049382716 39.65277777777778)"/><path d="M959.1 181.93l-102.4 48.63" stroke="#5e5e5e" stroke-width="2" fill="none"/><path d="M959.5 182.84l-.67-1.4 1.15.06 2.54-.1z" fill="#5e5e5e"/><path d="M842.92 237.1l10.9-10.3 3.98 8.38z" stroke="#5e5e5e" stroke-width="2" fill="#5e5e5e"/><path d="M880 280c0 22.1-17.9 40-40 40s-40-17.9-40-40 17.9-40 40-40 40 17.9 40 40z" stroke="#5e5e5e" stroke-width="3" fill="#fff"/><use xlink:href="#b" transform="matrix(1,0,0,1,805,245) translate(28.82716049382716 39.65277777777778)"/><path d="M960.93 181.88l121.93 49.64" stroke="#5e5e5e" stroke-width="2" fill="none"/><path d="M959.98 181.5l1.14-.04-.55 1.35-3.7-1.5z" fill="#5e5e5e"/><path d="M1097 237.28l-14.96-1.1 3.5-8.57z" stroke="#5e5e5e" stroke-width="2" fill="#5e5e5e"/><path d="M1140 280c0 22.1-17.9 40-40 40s-40-17.9-40-40 17.9-40 40-40 40 17.9 40 40z" stroke="#5e5e5e" stroke-width="3" fill="#fff"/><use xlink:href="#b" transform="matrix(1,0,0,1,1065,245) translate(28.82716049382716 39.65277777777778)"/><path d="M839.35 322.26l-87.33 102.17" stroke="#5e5e5e" stroke-width="2" fill="none"/><path d="M839.98 321.5l1.38-.05-1.27 1.48-1.53-1.3.18-.2z" fill="#5e5e5e"/><path d="M742.1 436.04l5.75-13.86 7.05 6.03z" stroke="#5e5e5e" stroke-width="2" fill="#5e5e5e"/><path d="M780 480c0 22.1-17.9 40-40 40s-40-17.9-40-40 17.9-40 40-40 40 17.9 40 40z" stroke="#5e5e5e" stroke-width="3" fill="#fff"/><use xlink:href="#c" transform="matrix(1,0,0,1,705,445) translate(28.82716049382716 39.65277777777778)"/><path d="M1100.65 322.26l87.33 102.17" stroke="#5e5e5e" stroke-width="2" fill="none"/><path d="M1099.98 321.5l1.3-.04.15.17-1.52 1.3-1.3-1.5z" fill="#5e5e5e"/><path d="M1197.9 436.04l-12.8-7.83 7.05-6.02z" stroke="#5e5e5e" stroke-width="2" fill="#5e5e5e"/><path d="M1240 480c0 22.1-17.9 40-40 40s-40-17.9-40-40 17.9-40 40-40 40 17.9 40 40z" stroke="#5e5e5e" stroke-width="3" fill="#fff"/><use xlink:href="#c" transform="matrix(1,0,0,1,1165,445) translate(28.82716049382716 39.65277777777778)"/><path d="M1520 140c0 22.1-17.9 40-40 40s-40-17.9-40-40 17.9-40 40-40 40 17.9 40 40z" stroke="#5e5e5e" stroke-width="3" fill="#fff"/><use xlink:href="#a" transform="matrix(1,0,0,1,1445,105) translate(28.82716049382716 39.65277777777778)"/><path d="M1479.07 181.88l-121.93 49.64" stroke="#5e5e5e" stroke-width="2" fill="none"/><path d="M1479.43 182.8l-.57-1.37 1.12.07 2.92-.1z" fill="#5e5e5e"/><path d="M1343 237.28l11.46-9.67 3.5 8.6z" stroke="#5e5e5e" stroke-width="2" fill="#5e5e5e"/><path d="M1380 280c0 22.1-17.9 40-40 40s-40-17.9-40-40 17.9-40 40-40 40 17.9 40 40z" stroke="#5e5e5e" stroke-width="3" fill="#fff"/><use xlink:href="#b" transform="matrix(1,0,0,1,1305,245) translate(28.82716049382716 39.65277777777778)"/><path d="M1480.94 181.84l141.63 50.45" stroke="#5e5e5e" stroke-width="2" fill="none"/><path d="M1479.98 181.5l1.12-.04-.47 1.33-3.8-1.36.05-.13z" fill="#5e5e5e"/><path d="M1636.95 237.4l-15-.4 3.12-8.74z" stroke="#5e5e5e" stroke-width="2" fill="#5e5e5e"/><path d="M1680 280c0 22.1-17.9 40-40 40s-40-17.9-40-40 17.9-40 40-40 40 17.9 40 40z" stroke="#5e5e5e" stroke-width="3" fill="#fff"/><use xlink:href="#b" transform="matrix(1,0,0,1,1605,245) translate(28.82716049382716 39.65277777777778)"/><path d="M1340.65 322.26l87.33 102.17" stroke="#5e5e5e" stroke-width="2" fill="none"/><path d="M1339.98 321.5l1.3-.04.15.17-1.52 1.3-1.3-1.5z" fill="#5e5e5e"/><path d="M1437.9 436.04l-12.8-7.83 7.05-6.02z" stroke="#5e5e5e" stroke-width="2" fill="#5e5e5e"/><path d="M1480 480c0 22.1-17.9 40-40 40s-40-17.9-40-40 17.9-40 40-40 40 17.9 40 40z" stroke="#5e5e5e" stroke-width="3" fill="#fff"/><use xlink:href="#d" transform="matrix(1,0,0,1,1405,445) translate(22.654320987654323 39.65277777777778)"/><path d="M1639.35 322.26l-87.33 102.17" stroke="#5e5e5e" stroke-width="2" fill="none"/><path d="M1639.98 321.5l1.38-.05-1.27 1.48-1.53-1.3.18-.2z" fill="#5e5e5e"/><path d="M1542.1 436.04l5.75-13.86 7.05 6.03z" stroke="#5e5e5e" stroke-width="2" fill="#5e5e5e"/><path d="M1580 480c0 22.1-17.9 40-40 40s-40-17.9-40-40 17.9-40 40-40 40 17.9 40 40z" stroke="#5e5e5e" stroke-width="3" fill="#fff"/><use xlink:href="#d" transform="matrix(1,0,0,1,1505,445) translate(22.654320987654323 39.65277777777778)"/><defs><path fill="#333" d="M54-142c48-35 137-8 131 61C196 18 31 33 14-55l32-4c7 23 22 37 52 37 35-1 51-22 54-58 4-55-73-65-99-34H22l8-134h141v27H59" id="e"/><use transform="matrix(0.06172839506172839,0,0,0.06172839506172839,0,0)" xlink:href="#e" id="a"/><path fill="#333" d="M64 0c3-98 48-159 88-221H18v-27h164v26C143-157 98-101 97 0H64" id="f"/><use transform="matrix(0.06172839506172839,0,0,0.06172839506172839,0,0)" xlink:href="#f" id="b"/><path fill="#333" d="M126-127c33 6 58 20 58 59 0 88-139 92-164 29-3-8-5-16-6-25l32-3c6 27 21 44 54 44 32 0 52-15 52-46 0-38-36-46-79-43v-28c39 1 72-4 72-42 0-27-17-43-46-43-28 0-47 15-49 41l-32-3c6-42 35-63 81-64 48-1 79 21 79 65 0 36-21 52-52 59" id="g"/><use transform="matrix(0.06172839506172839,0,0,0.06172839506172839,0,0)" xlink:href="#g" id="c"/><path fill="#333" d="M27 0v-27h64v-190l-56 39v-29l58-41h29v221h61V0H27" id="h"/><path fill="#333" d="M101-251c82-7 93 87 43 132L82-64C71-53 59-42 53-27h129V0H18c2-99 128-94 128-182 0-28-16-43-45-43s-46 15-49 41l-32-3c6-41 34-60 81-64" id="i"/><g id="d"><use transform="matrix(0.06172839506172839,0,0,0.06172839506172839,0,0)" xlink:href="#h"/><use transform="matrix(0.06172839506172839,0,0,0.06172839506172839,12.345679012345679,0)" xlink:href="#i"/></g></defs></g></svg>