<svg xmlns="http://www.w3.org/2000/svg" xmlns:lucid="lucid" width="546.62" height="188.53"><g lucid:page-tab-id="w7U9cc4SFqdZ" stroke="#5e5e5e" stroke-width="3"><path d="M20 26c0-3.3 2.7-6 6-6h494.62c3.3 0 6 2.7 6 6v136.53c0 3.3-2.7 6-6 6H26c-3.3 0-6-2.7-6-6z" fill="#fff"/><path d="M29.1 39.02c0-3.3 2.7-6 6-6h61.8c3.3 0 6 2.7 6 6v20.33c0 3.32-2.7 6-6 6H35.1c-3.3 0-6-2.68-6-6zM113.1 39.02c0-3.3 2.7-6 6-6h31.12c3.32 0 6 2.7 6 6v20.33c0 3.32-2.68 6-6 6h-31.1c-3.32 0-6-2.68-6-6zM162.44 39.02c0-3.3 2.7-6 6-6h31.12c3.3 0 6 2.7 6 6v20.33c0 3.32-2.7 6-6 6h-31.12c-3.3 0-6-2.68-6-6zM211.78 39.02c0-3.3 2.68-6 6-6h31.1c3.32 0 6 2.7 6 6v20.33c0 3.32-2.68 6-6 6h-31.1c-3.32 0-6-2.68-6-6zM261.1 39.02c0-3.3 2.7-6 6-6h31.12c3.32 0 6 2.7 6 6v20.33c0 3.32-2.68 6-6 6h-31.1c-3.32 0-6-2.68-6-6zM310.44 39.02c0-3.3 2.7-6 6-6h31.12c3.3 0 6 2.7 6 6v20.33c0 3.32-2.7 6-6 6h-31.12c-3.3 0-6-2.68-6-6zM359.78 39.02c0-3.3 2.68-6 6-6h31.1c3.32 0 6 2.7 6 6v20.33c0 3.32-2.68 6-6 6h-31.1c-3.32 0-6-2.68-6-6zM409.1 39.02c0-3.3 2.7-6 6-6h31.12c3.32 0 6 2.7 6 6v20.33c0 3.32-2.68 6-6 6h-31.1c-3.32 0-6-2.68-6-6zM123.56 84.35c0-3.3 2.68-6 6-6h31.1c3.32 0 6 2.7 6 6v20.34c0 3.3-2.68 6-6 6h-31.1c-3.32 0-6-2.7-6-6zM172.9 84.35c0-3.3 2.68-6 6-6H210c3.3 0 6 2.7 6 6v20.34c0 3.3-2.7 6-6 6h-31.1c-3.32 0-6-2.7-6-6zM222.22 84.35c0-3.3 2.7-6 6-6h31.1c3.33 0 6 2.7 6 6v20.34c0 3.3-2.67 6-6 6h-31.1c-3.3 0-6-2.7-6-6zM271.56 84.35c0-3.3 2.68-6 6-6h31.1c3.32 0 6 2.7 6 6v20.34c0 3.3-2.68 6-6 6h-31.1c-3.32 0-6-2.7-6-6zM320.9 84.35c0-3.3 2.68-6 6-6H358c3.3 0 6 2.7 6 6v20.34c0 3.3-2.7 6-6 6h-31.1c-3.32 0-6-2.7-6-6zM370.22 84.35c0-3.3 2.7-6 6-6h31.1c3.33 0 6 2.7 6 6v20.34c0 3.3-2.67 6-6 6h-31.1c-3.3 0-6-2.7-6-6zM29.1 84.35c0-3.3 2.7-6 6-6h72c3.32 0 6 2.7 6 6v20.34c0 3.3-2.68 6-6 6h-72c-3.3 0-6-2.7-6-6z" fill="#fff"/><path d="M512.4 77.85V39.02c0-3.3-2.67-5.94-6-5.87l-34.96.74c-3.3.06-6 2.8-6 6.12v28c0 3.3-2.68 6-6 6.02l-29.66.08c-3.32 0-6 2.7-6 6.02v24.55c0 3.3 2.68 6 6 6h76.63c3.33 0 6-2.7 6-6z" fill="#fff"/><path d="M29.1 129.38c0-3.32 2.7-6 6-6h37.34c3.32 0 6 2.68 6 6v20.33c0 3.32-2.68 6-6 6H35.1c-3.3 0-6-2.68-6-6z"/><path d="M86.67 129.38c0-3.32 2.68-6 6-6h31.1c3.32 0 6 2.68 6 6v20.33c0 3.32-2.68 6-6 6h-31.1c-3.32 0-6-2.68-6-6z" fill="#fff"/><path d="M138 129.38c0-3.32 2.7-6 6-6h240.5c3.32 0 6 2.68 6 6v20.33c0 3.32-2.68 6-6 6H144c-3.3 0-6-2.68-6-6z"/><path d="M423.78 129.38c0-3.32 2.68-6 6-6h31.1c3.32 0 6 2.68 6 6v20.33c0 3.32-2.68 6-6 6h-31.1c-3.32 0-6-2.68-6-6zM473.1 129.38c0-3.32 2.7-6 6-6h31.12c3.32 0 6 2.68 6 6v20.33c0 3.32-2.68 6-6 6h-31.1c-3.32 0-6-2.68-6-6z" fill="#fff"/></g></svg>