<svg xmlns="http://www.w3.org/2000/svg" xmlns:xlink="http://www.w3.org/1999/xlink" xmlns:lucid="lucid" width="546.62" height="319.76"><g transform="translate(-281.55555555555554 -63.969610636277366)" lucid:page-tab-id="w7U9cc4SFqdZ"><path d="M301.56 89.97c0-3.3 2.68-6 6-6h494.6c3.32 0 6 2.7 6 6v267.76c0 3.3-2.68 6-6 6h-494.6c-3.32 0-6-2.7-6-6z" stroke="#5e5e5e" stroke-width="3" fill="#fff"/><path d="M310.67 99.33c0-3.3 2.68-6 6-6h31.1c3.32 0 6 2.7 6 6v20.34c0 3.3-2.68 6-6 6h-31.1c-3.32 0-6-2.7-6-6zM360 99.33c0-3.3 2.7-6 6-6h31.1c3.32 0 6 2.7 6 6v20.34c0 3.3-2.68 6-6 6H366c-3.3 0-6-2.7-6-6zM409.33 99.33c0-3.3 2.7-6 6-6h31.1c3.33 0 6 2.7 6 6v20.34c0 3.3-2.67 6-6 6h-31.1c-3.3 0-6-2.7-6-6zM458.67 99.33c0-3.3 2.68-6 6-6h31.1c3.32 0 6 2.7 6 6v20.34c0 3.3-2.68 6-6 6h-31.1c-3.32 0-6-2.7-6-6zM508 99.33c0-3.3 2.7-6 6-6h31.1c3.32 0 6 2.7 6 6v20.34c0 3.3-2.68 6-6 6H514c-3.3 0-6-2.7-6-6zM557.33 99.33c0-3.3 2.7-6 6-6h31.1c3.33 0 6 2.7 6 6v20.34c0 3.3-2.67 6-6 6h-31.1c-3.3 0-6-2.7-6-6zM606.67 99.33c0-3.3 2.68-6 6-6h31.1c3.32 0 6 2.7 6 6v20.34c0 3.3-2.68 6-6 6h-31.1c-3.32 0-6-2.7-6-6zM656 99.33c0-3.3 2.7-6 6-6h31.1c3.32 0 6 2.7 6 6v20.34c0 3.3-2.68 6-6 6H662c-3.3 0-6-2.7-6-6zM705.33 99.33c0-3.3 2.7-6 6-6h31.1c3.33 0 6 2.7 6 6v20.34c0 3.3-2.67 6-6 6h-31.1c-3.3 0-6-2.7-6-6zM754.67 99.33c0-3.3 2.68-6 6-6h31.1c3.32 0 6 2.7 6 6v20.34c0 3.3-2.68 6-6 6h-31.1c-3.32 0-6-2.7-6-6zM310.67 144.67c0-3.32 2.68-6 6-6h31.1c3.32 0 6 2.68 6 6V165c0 3.3-2.68 6-6 6h-31.1c-3.32 0-6-2.7-6-6zM360 144.67c0-3.32 2.7-6 6-6h31.1c3.32 0 6 2.68 6 6V165c0 3.3-2.68 6-6 6H366c-3.3 0-6-2.7-6-6zM409.33 144.67c0-3.32 2.7-6 6-6h31.1c3.33 0 6 2.68 6 6V165c0 3.3-2.67 6-6 6h-31.1c-3.3 0-6-2.7-6-6zM458.67 144.67c0-3.32 2.68-6 6-6h31.1c3.32 0 6 2.68 6 6V165c0 3.3-2.68 6-6 6h-31.1c-3.32 0-6-2.7-6-6zM508 144.67c0-3.32 2.7-6 6-6h31.1c3.32 0 6 2.68 6 6V165c0 3.3-2.68 6-6 6H514c-3.3 0-6-2.7-6-6zM557.33 144.67c0-3.32 2.7-6 6-6h31.1c3.33 0 6 2.68 6 6V165c0 3.3-2.67 6-6 6h-31.1c-3.3 0-6-2.7-6-6zM606.67 144.67c0-3.32 2.68-6 6-6h31.1c3.32 0 6 2.68 6 6V165c0 3.3-2.68 6-6 6h-31.1c-3.32 0-6-2.7-6-6zM656 144.67c0-3.32 2.7-6 6-6h31.1c3.32 0 6 2.68 6 6V165c0 3.3-2.68 6-6 6H662c-3.3 0-6-2.7-6-6zM705.33 144.67c0-3.32 2.7-6 6-6h80.45c3.3 0 6 2.68 6 6V165c0 3.3-2.7 6-6 6h-80.45c-3.3 0-6-2.7-6-6zM310.67 190c0-3.3 2.68-6 6-6h61.77c3.32 0 6 2.7 6 6v20.33c0 3.32-2.68 6-6 6h-61.77c-3.32 0-6-2.68-6-6zM394.67 190c0-3.3 2.68-6 6-6h31.1c3.32 0 6 2.7 6 6v20.33c0 3.32-2.68 6-6 6h-31.1c-3.32 0-6-2.68-6-6zM444 190c0-3.3 2.7-6 6-6h31.1c3.32 0 6 2.7 6 6v20.33c0 3.32-2.68 6-6 6H450c-3.3 0-6-2.68-6-6zM493.33 190c0-3.3 2.7-6 6-6h31.1c3.33 0 6 2.7 6 6v20.33c0 3.32-2.67 6-6 6h-31.1c-3.3 0-6-2.68-6-6zM542.67 190c0-3.3 2.68-6 6-6h31.1c3.32 0 6 2.7 6 6v20.33c0 3.32-2.68 6-6 6h-31.1c-3.32 0-6-2.68-6-6zM592 190c0-3.3 2.7-6 6-6h31.1c3.32 0 6 2.7 6 6v20.33c0 3.32-2.68 6-6 6H598c-3.3 0-6-2.68-6-6zM641.33 190c0-3.3 2.7-6 6-6h31.1c3.33 0 6 2.7 6 6v20.33c0 3.32-2.67 6-6 6h-31.1c-3.3 0-6-2.68-6-6zM690.67 190c0-3.3 2.68-6 6-6h31.1c3.32 0 6 2.7 6 6v20.33c0 3.32-2.68 6-6 6h-31.1c-3.32 0-6-2.68-6-6zM405.1 235.33c0-3.3 2.7-6 6-6h31.12c3.32 0 6 2.7 6 6v20.34c0 3.3-2.68 6-6 6h-31.1c-3.32 0-6-2.7-6-6zM454.44 235.33c0-3.3 2.7-6 6-6h31.12c3.3 0 6 2.7 6 6v20.34c0 3.3-2.7 6-6 6h-31.12c-3.3 0-6-2.7-6-6zM503.78 235.33c0-3.3 2.68-6 6-6h31.1c3.32 0 6 2.7 6 6v20.34c0 3.3-2.68 6-6 6h-31.1c-3.32 0-6-2.7-6-6zM553.1 235.33c0-3.3 2.7-6 6-6h31.12c3.32 0 6 2.7 6 6v20.34c0 3.3-2.68 6-6 6h-31.1c-3.32 0-6-2.7-6-6zM602.44 235.33c0-3.3 2.7-6 6-6h31.12c3.3 0 6 2.7 6 6v20.34c0 3.3-2.7 6-6 6h-31.12c-3.3 0-6-2.7-6-6zM651.78 235.33c0-3.3 2.68-6 6-6h31.1c3.32 0 6 2.7 6 6v20.34c0 3.3-2.68 6-6 6h-31.1c-3.32 0-6-2.7-6-6zM310.67 235.33c0-3.3 2.68-6 6-6h72c3.3 0 6 2.7 6 6v20.34c0 3.3-2.7 6-6 6h-72c-3.32 0-6-2.7-6-6z" stroke="#5e5e5e" stroke-width="3" fill="#fff"/><path d="M793.97 228.83V190c0-3.3-2.7-5.94-6-5.87l-34.97.74c-3.3.07-6 2.82-6 6.13v28c0 3.3-2.7 6-6 6.02l-29.67.08c-3.3 0-6 2.7-6 6.02v24.55c0 3.3 2.7 6 6 6h76.64c3.3 0 6-2.7 6-6zM310.67 280.67c0-3.32 2.68-6 6-6h82.44c3.32 0 6 2.68 6 6V301c0 3.3-2.68 6-6 6h-82.43c-3.32 0-6-2.7-6-6zM411.33 280.67c0-3.32 2.7-6 6-6h31.1c3.33 0 6 2.68 6 6V301c0 3.3-2.67 6-6 6h-31.1c-3.3 0-6-2.7-6-6zM460.67 280.67c0-3.32 2.68-6 6-6h31.1c3.32 0 6 2.68 6 6V301c0 3.3-2.68 6-6 6h-31.1c-3.32 0-6-2.7-6-6zM510 280.67c0-3.32 2.7-6 6-6h31.1c3.32 0 6 2.68 6 6V301c0 3.3-2.68 6-6 6H516c-3.3 0-6-2.7-6-6zM559.33 280.67c0-3.32 2.7-6 6-6h31.1c3.33 0 6 2.68 6 6V301c0 3.3-2.67 6-6 6h-31.1c-3.3 0-6-2.7-6-6zM608.67 280.67c0-3.32 2.68-6 6-6h31.1c3.32 0 6 2.68 6 6V301c0 3.3-2.68 6-6 6h-31.1c-3.32 0-6-2.7-6-6zM658 280.67c0-3.32 2.7-6 6-6h127.78c3.3 0 6 2.68 6 6V301c0 3.3-2.7 6-6 6H664c-3.3 0-6-2.7-6-6z" stroke="#5e5e5e" stroke-width="3" fill="#fff"/><path d="M310.67 326c0-3.3 2.68-6 6-6H354c3.3 0 6 2.7 6 6v20.33c0 3.32-2.7 6-6 6h-37.33c-3.32 0-6-2.68-6-6z" stroke="#5e5e5e" stroke-width="3" fill="#0c7cba"/><use xlink:href="#a" transform="matrix(1,0,0,1,310.66666666666663,320.00000000000034) translate(7.617283950617287 22.85713777777778)"/><path d="M368.22 326c0-3.3 2.7-6 6-6h31.1c3.33 0 6 2.7 6 6v20.33c0 3.32-2.67 6-6 6h-31.1c-3.3 0-6-2.68-6-6z" stroke="#5e5e5e" stroke-width="3" fill="#fff"/><path d="M419.56 326c0-3.3 2.68-6 6-6h240.5c3.3 0 6 2.7 6 6v20.33c0 3.32-2.7 6-6 6h-240.5c-3.32 0-6-2.68-6-6z" stroke="#5e5e5e" stroke-width="3" fill="#0c7cba"/><use xlink:href="#b" transform="matrix(1,0,0,1,419.55555555555577,320.0000000000005) translate(94.52351851851853 21.77777777777778)"/><path d="M705.33 326c0-3.3 2.7-6 6-6h31.1c3.33 0 6 2.7 6 6v20.33c0 3.32-2.67 6-6 6h-31.1c-3.3 0-6-2.68-6-6zM754.67 326c0-3.3 2.68-6 6-6h31.1c3.32 0 6 2.7 6 6v20.33c0 3.32-2.68 6-6 6h-31.1c-3.32 0-6-2.68-6-6z" stroke="#5e5e5e" stroke-width="3" fill="#fff"/><defs><path fill="#fff" d="M212-179c-10-28-35-45-73-45-59 0-87 40-87 99 0 60 29 101 89 101 43 0 62-24 78-52l27 14C228-24 195 4 139 4 59 4 22-46 18-125c-6-104 99-153 187-111 19 9 31 26 39 46" id="c"/><path fill="#fff" d="M59-47c-2 24 18 29 38 22v24C64 9 27 4 27-40v-127H5v-23h24l9-43h21v43h35v23H59v120" id="d"/><path fill="#fff" d="M114-163C36-179 61-72 57 0H25l-1-190h30c1 12-1 29 2 39 6-27 23-49 58-41v29" id="e"/><path fill="#fff" d="M24 0v-261h32V0H24" id="f"/><g id="a"><use transform="matrix(0.06172839506172839,0,0,0.06172839506172839,0,0)" xlink:href="#c"/><use transform="matrix(0.06172839506172839,0,0,0.06172839506172839,15.987654320987653,0)" xlink:href="#d"/><use transform="matrix(0.06172839506172839,0,0,0.06172839506172839,22.160493827160494,0)" xlink:href="#e"/><use transform="matrix(0.06172839506172839,0,0,0.06172839506172839,29.50617283950617,0)" xlink:href="#f"/></g><path fill="#fff" d="M185-189c-5-48-123-54-124 2 14 75 158 14 163 119 3 78-121 87-175 55-17-10-28-26-33-46l33-7c5 56 141 63 141-1 0-78-155-14-162-118-5-82 145-84 179-34 5 7 8 16 11 25" id="g"/><path fill="#fff" d="M115-194c55 1 70 41 70 98S169 2 115 4C84 4 66-9 55-30l1 105H24l-1-265h31l2 30c10-21 28-34 59-34zm-8 174c40 0 45-34 45-75s-6-73-45-74c-42 0-51 32-51 76 0 43 10 73 51 73" id="h"/><path fill="#fff" d="M141-36C126-15 110 5 73 4 37 3 15-17 15-53c-1-64 63-63 125-63 3-35-9-54-41-54-24 1-41 7-42 31l-33-3c5-37 33-52 76-52 45 0 72 20 72 64v82c-1 20 7 32 28 27v20c-31 9-61-2-59-35zM48-53c0 20 12 33 32 33 41-3 63-29 60-74-43 2-92-5-92 41" id="i"/><path fill="#fff" d="M96-169c-40 0-48 33-48 73s9 75 48 75c24 0 41-14 43-38l32 2c-6 37-31 61-74 61-59 0-76-41-82-99-10-93 101-131 147-64 4 7 5 14 7 22l-32 3c-4-21-16-35-41-35" id="j"/><path fill="#fff" d="M100-194c63 0 86 42 84 106H49c0 40 14 67 53 68 26 1 43-12 49-29l28 8c-11 28-37 45-77 45C44 4 14-33 15-96c1-61 26-98 85-98zm52 81c6-60-76-77-97-28-3 7-6 17-6 28h103" id="k"/><g id="b"><use transform="matrix(0.06172839506172839,0,0,0.06172839506172839,0,0)" xlink:href="#g"/><use transform="matrix(0.06172839506172839,0,0,0.06172839506172839,14.814814814814813,0)" xlink:href="#h"/><use transform="matrix(0.06172839506172839,0,0,0.06172839506172839,27.160493827160494,0)" xlink:href="#i"/><use transform="matrix(0.06172839506172839,0,0,0.06172839506172839,39.50617283950617,0)" xlink:href="#j"/><use transform="matrix(0.06172839506172839,0,0,0.06172839506172839,50.61728395061728,0)" xlink:href="#k"/></g></defs></g></svg>