<svg xmlns="http://www.w3.org/2000/svg" xmlns:lucid="lucid" width="346.92" height="188.53"><g lucid:page-tab-id="w7U9cc4SFqdZ" stroke="#5e5e5e" stroke-width="3"><path d="M20 26c0-3.3 2.7-6 6-6h294.92c3.3 0 6 2.7 6 6v136.53c0 3.3-2.7 6-6 6H26c-3.3 0-6-2.7-6-6z" fill="#c1e4f7"/><path d="M29.1 39.02c0-3.3 2.7-6 6-6h61.8c3.3 0 6 2.7 6 6v20.33c0 3.32-2.7 6-6 6H35.1c-3.3 0-6-2.68-6-6zM113.1 39.02c0-3.3 2.7-6 6-6h31.12c3.32 0 6 2.7 6 6v20.33c0 3.32-2.68 6-6 6h-31.1c-3.32 0-6-2.68-6-6zM164.06 39.18c0-3.32 2.7-6 6-6h31.1c3.32 0 6 2.68 6 6V59.5c0 3.32-2.68 6-6 6h-31.1c-3.3 0-6-2.68-6-6zM213.4 39.18c0-3.32 2.68-6 6-6h31.1c3.32 0 6 2.68 6 6V59.5c0 3.32-2.68 6-6 6h-31.1c-3.32 0-6-2.68-6-6zM123.56 84.35c0-3.3 2.68-6 6-6h31.1c3.32 0 6 2.7 6 6v20.34c0 3.3-2.68 6-6 6h-31.1c-3.32 0-6-2.7-6-6zM174.5 84.5c0-3.3 2.7-6 6-6h31.1c3.33 0 6 2.7 6 6v20.34c0 3.32-2.67 6-6 6h-31.1c-3.3 0-6-2.68-6-6zM29.1 84.35c0-3.3 2.7-6 6-6h72c3.32 0 6 2.7 6 6v20.34c0 3.3-2.68 6-6 6h-72c-3.3 0-6-2.7-6-6z" fill="#fff"/><path d="M316.7 78V39.2c0-3.32-2.7-5.95-6-5.88l-34.98.75c-3.3.07-6 2.8-6 6.13v28c0 3.3-2.68 6-6 6l-29.66.1c-3.3 0-6 2.7-6 6v24.56c0 3.32 2.7 6 6 6h76.63c3.3 0 6-2.68 6-6z" fill="#fff"/><path d="M29.1 129.38c0-3.32 2.7-6 6-6h37.34c3.32 0 6 2.68 6 6v20.33c0 3.32-2.68 6-6 6H35.1c-3.3 0-6-2.68-6-6zM88.08 129.38c0-3.32 2.68-6 6-6h115.26c3.3 0 6 2.68 6 6v18.9c0 3.32-2.7 6-6 6H94.08c-3.32 0-6-2.68-6-6z"/><path d="M228.06 128.1c0-3.3 2.7-6 6-6h31.1c3.32 0 6 2.7 6 6v20.34c0 3.3-2.68 6-6 6h-31.1c-3.3 0-6-2.7-6-6zM277.4 128.1c0-3.3 2.68-6 6-6h31.1c3.32 0 6 2.7 6 6v20.34c0 3.3-2.68 6-6 6h-31.1c-3.32 0-6-2.7-6-6z" fill="#fff"/></g></svg>