<svg xmlns="http://www.w3.org/2000/svg" xmlns:lucid="lucid" width="448.19" height="188.53"><g lucid:page-tab-id="w7U9cc4SFqdZ" stroke="#5e5e5e" stroke-width="3"><path d="M20 26c0-3.3 2.7-6 6-6h396.2c3.3 0 6 2.7 6 6v136.53c0 3.3-2.7 6-6 6H26c-3.3 0-6-2.7-6-6z" fill="#fff"/><path d="M29.1 39.02c0-3.3 2.7-6 6-6h61.8c3.3 0 6 2.7 6 6v20.33c0 3.32-2.7 6-6 6H35.1c-3.3 0-6-2.68-6-6zM113.1 39.02c0-3.3 2.7-6 6-6h31.12c3.32 0 6 2.7 6 6v20.33c0 3.32-2.68 6-6 6h-31.1c-3.32 0-6-2.68-6-6zM162.44 39.02c0-3.3 2.7-6 6-6h31.12c3.3 0 6 2.7 6 6v20.33c0 3.32-2.7 6-6 6h-31.12c-3.3 0-6-2.68-6-6zM216 39.18c0-3.32 2.7-6 6-6h31.1c3.32 0 6 2.68 6 6V59.5c0 3.32-2.68 6-6 6H222c-3.3 0-6-2.68-6-6zM265.33 39.18c0-3.32 2.7-6 6-6h31.1c3.33 0 6 2.68 6 6V59.5c0 3.32-2.67 6-6 6h-31.1c-3.3 0-6-2.68-6-6zM314.67 39.18c0-3.32 2.68-6 6-6h31.1c3.32 0 6 2.68 6 6V59.5c0 3.32-2.68 6-6 6h-31.1c-3.32 0-6-2.68-6-6zM123.56 84.35c0-3.3 2.68-6 6-6h31.1c3.32 0 6 2.7 6 6v20.34c0 3.3-2.68 6-6 6h-31.1c-3.32 0-6-2.7-6-6zM172.9 84.35c0-3.3 2.68-6 6-6H210c3.3 0 6 2.7 6 6v20.34c0 3.3-2.7 6-6 6h-31.1c-3.32 0-6-2.7-6-6zM226.44 84.5c0-3.3 2.7-6 6-6h31.12c3.3 0 6 2.7 6 6v20.34c0 3.32-2.7 6-6 6h-31.12c-3.3 0-6-2.68-6-6zM275.78 84.5c0-3.3 2.68-6 6-6h31.1c3.32 0 6 2.7 6 6v20.34c0 3.32-2.68 6-6 6h-31.1c-3.32 0-6-2.68-6-6zM29.1 84.35c0-3.3 2.7-6 6-6h72c3.32 0 6 2.7 6 6v20.34c0 3.3-2.68 6-6 6h-72c-3.3 0-6-2.7-6-6z" fill="#fff"/><path d="M417.97 78V39.2c0-3.32-2.7-5.95-6-5.88l-34.97.75c-3.3.07-6 2.8-6 6.13v28c0 3.3-2.7 6-6 6l-29.67.1c-3.3 0-6 2.7-6 6v24.56c0 3.32 2.7 6 6 6h76.64c3.3 0 6-2.68 6-6z" fill="#fff"/><path d="M29.1 129.38c0-3.32 2.7-6 6-6h37.34c3.32 0 6 2.68 6 6v20.33c0 3.32-2.68 6-6 6H35.1c-3.3 0-6-2.68-6-6z"/><path d="M86.67 129.38c0-3.32 2.68-6 6-6h31.1c3.32 0 6 2.68 6 6v20.33c0 3.32-2.68 6-6 6h-31.1c-3.32 0-6-2.68-6-6z" fill="#fff"/><path d="M138 129.38c0-3.32 2.7-6 6-6h170.9c3.3 0 6 2.68 6 6v20.33c0 3.32-2.7 6-6 6H144c-3.3 0-6-2.68-6-6z"/><path d="M329.33 129.53c0-3.3 2.7-6 6-6h31.1c3.33 0 6 2.7 6 6v20.33c0 3.32-2.67 6-6 6h-31.1c-3.3 0-6-2.68-6-6zM378.67 129.53c0-3.3 2.68-6 6-6h31.1c3.32 0 6 2.7 6 6v20.33c0 3.32-2.68 6-6 6h-31.1c-3.32 0-6-2.68-6-6z" fill="#fff"/></g></svg>